<svg width="45" height="35" viewBox="0 0 45 35" fill="none" xmlns="http://www.w3.org/2000/svg">
<path d="M9.22286 0.0295105C4.15391 0.0295105 0.0435638 4.2221 0.0435638 9.39247C0.0435638 13.2591 2.33839 16.5777 5.62086 17.9999L18.9541 23.7777C19.2446 23.9406 19.4334 24.2517 19.4334 24.5925C19.4334 25.0814 19.0557 25.4814 18.591 25.5258H0.0435638V34.8888H23.4421V34.8739C28.3222 34.6665 32.2292 30.5628 32.2292 25.5258C32.2292 21.4369 29.6584 17.9702 26.0855 16.6962L13.3913 11.1999C13.0427 11.0665 12.7958 10.7258 12.7958 10.3258C12.7958 9.83692 13.1734 9.43692 13.6382 9.39247H35.134H37.8936C39.8689 9.39247 41.5537 8.1184 42.2073 6.3258L44.4586 0.0295105H9.22286Z" fill="url(#paint0_linear)"/>
<defs>
<linearGradient id="paint0_linear" x1="0.0435638" y1="34.8888" x2="44.4586" y2="34.8888" gradientUnits="userSpaceOnUse">
<stop stop-color="#49A2FB"/>
<stop offset="1" stop-color="#5BBAFB"/>
</linearGradient>
</defs>
</svg>
